<svg id="Capa_1" enable-background="new 0 0 512.002 512.002" height="512" viewBox="0 0 512.002 512.002" width="512" xmlns="http://www.w3.org/2000/svg"><g><path d="m190.654 408.766-2.474-17.264h284.981l38.84-271h-112.438l33.826-32.154v-38.096h-30.125v-50.252l-150.5.005v50.247h-30.124v38.096l33.826 32.154h-107.127l-17.271-120.5h-132.067v90.25h114.599l46.259 322.756c2.774 19.355 17.912 34.538 36.677 37.998-1.869 4.94-2.898 10.287-2.898 15.87 0 24.882 20.309 45.125 45.272 45.125s45.273-20.243 45.273-45.125c0-5.304-.93-10.394-2.624-15.125h65.821c-1.694 4.731-2.624 9.821-2.624 15.125 0 24.882 20.309 45.125 45.272 45.125s45.272-20.243 45.272-45.125c0-5.304-.93-10.394-2.624-15.125h39.996v-30h-267.996c-7.503.001-13.961-5.582-15.022-12.985zm-160.555-348.514v-30.25h75.866l4.335 30.25zm252.666 20v-50.248l90.5-.003v50.252h24.543l-69.793 63.902-69.792-63.902h24.542zm-129.126 70.25h134.387l31.823 30.25h-114.48v30h220.182v-30h-89.371l31.823-30.25h109.295l-30.242 211h-263.176zm237.388 301.25c8.367 0 15.174 6.785 15.174 15.125s-6.807 15.125-15.174 15.125-15.174-6.785-15.174-15.125c0-8.339 6.807-15.125 15.174-15.125zm-151.117 0c8.367 0 15.175 6.785 15.175 15.125s-6.807 15.125-15.175 15.125c-8.367 0-15.174-6.785-15.174-15.125 0-8.339 6.807-15.125 15.174-15.125z"/><path d="m214.005 241.002h202.912v30h-202.912z"/><path d="m222.64 301.252h185.641v30h-185.641z"/></g></svg>