<svg id="Capa_1" enable-background="new 0 0 512 512" height="512" viewBox="0 0 512 512" width="512" xmlns="http://www.w3.org/2000/svg"><g><path d="m399.022 50.252h-30.125v-50.252l-120.5.004v50.248h-30.125v16.492l90.375 82.748 90.375-82.748z"/><path d="m184.236 408.744-2.487-17.244h284.077l46.174-271h-127.264l-65.803 60.25h99.439v30h-219.466v-30h99.456l-65.803-60.25h-89.887l-17.328-120.5h-125.344v60.25h103.672l50.868 352.756c3.155 22.088 22.36 38.744 44.671 38.744h24.472c-4.747 6.297-7.564 14.132-7.564 22.625 0 20.78 16.845 37.625 37.625 37.625s37.625-16.845 37.625-37.625c0-8.493-2.817-16.328-7.564-22.625h74.092c-4.747 6.297-7.564 14.132-7.564 22.625 0 20.78 16.845 37.625 37.625 37.625s37.625-16.845 37.625-37.625c0-8.493-2.817-16.328-7.564-22.625h48.314v-30h-267.121c-7.479 0-13.916-5.582-14.976-13.006zm216.921-77.494h-185.037v-30h185.037zm-193.644-90.25h202.251v30h-202.251z"/></g></svg>