<?xml version="1.0" encoding="UTF-8"?>
<!DOCTYPE svg PUBLIC "-//W3C//DTD SVG 1.1//EN" "http://www.w3.org/Graphics/SVG/1.1/DTD/svg11.dtd">
<!-- Creator: CorelDRAW X7 -->
<svg xmlns="http://www.w3.org/2000/svg" xml:space="preserve" width="100mm" height="99.9999mm" version="1.1" style="shape-rendering:geometricPrecision; text-rendering:geometricPrecision; image-rendering:optimizeQuality; fill-rule:evenodd; clip-rule:evenodd"
viewBox="0 0 10000 10000"
 xmlns:xlink="http://www.w3.org/1999/xlink">
 <defs>
  <style type="text/css">
   <![CDATA[
    .fil0 {fill:none}
    .fil1 {fill:#E6E6E6}
    .fil2 {fill:#E6E6E6;fill-rule:nonzero}
   ]]>
  </style>
 </defs>
 <g id="Слой_x0020_1">
  <metadata id="CorelCorpID_0Corel-Layer"/>
  <g id="_2645609175408">
   <rect class="fil0" width="10000" height="10000"/>
   <g>
    <g>
     <path class="fil1" d="M7488 2059l-3324 0 0 -111c0,-110 -90,-200 -201,-200l-207 0c-111,0 -201,90 -201,200l0 111 -220 0 0 -111c0,-110 -90,-200 -201,-200l-415 0c-111,0 -201,90 -201,200l0 111 -6 0c-282,0 -512,229 -512,511l0 2903c0,283 230,512 512,512l4976 0c282,0 512,-229 512,-512l0 -2903c0,-282 -230,-511 -512,-511zm-3739 -111c0,-3 3,-6 7,-6l207 0c4,0 7,3 7,6l0 111 -221 0 0 -111zm-1036 0c0,-3 3,-6 6,-6l415 0c3,0 6,3 6,6l0 111 -427 0 0 -111zm5093 3525c0,175 -143,318 -318,318l-4976 0c-175,0 -318,-143 -318,-318l0 -2903c0,-175 143,-317 318,-317l4976 0c175,0 318,142 318,317l0 2903z"/>
     <path class="fil1" d="M6037 2888c-626,0 -1134,509 -1134,1134 0,625 508,1134 1134,1134 625,0 1134,-509 1134,-1134 0,-625 -509,-1134 -1134,-1134zm0 2073c-518,0 -940,-421 -940,-939 0,-518 422,-940 940,-940 518,0 939,422 939,940 0,518 -421,939 -939,939z"/>
     <path class="fil1" d="M6575 3614l-1076 0c-35,0 -67,18 -85,48 -63,110 -97,234 -97,360 0,126 34,250 97,360 18,30 50,48 85,48l1076 0c35,0 67,-18 84,-48 63,-110 97,-234 97,-360 0,-126 -34,-250 -97,-360 -17,-30 -49,-48 -84,-48zm-59 622l-958 0c-30,-68 -46,-141 -46,-214 0,-74 16,-147 46,-214l958 0c30,67 46,140 46,214 0,73 -16,146 -46,214z"/>
     <path class="fil1" d="M6089 3925l-104 0c-54,0 -97,43 -97,97 0,54 43,97 97,97l104 0c53,0 97,-43 97,-97 0,-54 -44,-97 -97,-97z"/>
     <path class="fil1" d="M6037 2577c-797,0 -1445,648 -1445,1445 0,797 648,1445 1445,1445 796,0 1445,-648 1445,-1445 0,-797 -649,-1445 -1445,-1445zm0 2695c-690,0 -1251,-561 -1251,-1250 0,-690 561,-1251 1251,-1251 689,0 1250,561 1250,1251 0,689 -561,1250 -1250,1250z"/>
     <path class="fil1" d="M3238 2681c-54,0 -98,43 -98,97l0 2488c0,54 44,97 98,97 53,0 97,-43 97,-97l0 -2488c0,-54 -44,-97 -97,-97z"/>
    </g>
    <path class="fil2" d="M2641 7889l-124 0 0 -350 -393 0 0 350 -124 0 0 -771 124 0 0 316 393 0 0 -316 124 0 0 771zm870 -355l-545 0c2,86 25,153 69,199 45,47 105,70 183,70 87,0 166,-28 239,-86l0 116c-67,50 -157,74 -269,74 -109,0 -194,-35 -257,-105 -62,-70 -93,-168 -93,-295 0,-120 34,-218 102,-294 68,-75 153,-113 254,-113 101,0 179,32 234,98 55,65 83,156 83,272l0 64zm-127 -104c0,-72 -18,-127 -51,-167 -34,-40 -81,-59 -142,-59 -58,0 -108,20 -148,62 -41,42 -66,96 -76,164l417 0zm798 -207l-231 0 0 666 -124 0 0 -666 -232 0 0 -105 587 0 0 105zm1031 684l0 345 -112 0 0 -345 -24 0c-112,0 -203,-36 -272,-109 -70,-73 -104,-168 -104,-285 0,-125 35,-225 105,-301 70,-75 162,-112 277,-112l18 0 0 -309 112 0 0 309 17 0c116,0 209,37 279,112 70,74 105,175 105,301 0,117 -35,212 -103,285 -69,73 -160,109 -272,109l-26 0zm0 -703l0 599 17 0c78,0 140,-26 187,-79 47,-53 70,-125 70,-216 0,-96 -23,-170 -69,-224 -46,-54 -107,-80 -185,-80l-20 0zm-112 599l0 -599 -18 0c-77,0 -139,27 -186,81 -47,54 -70,128 -70,223 0,90 24,162 71,215 47,54 110,80 188,80l15 0zm1033 104c-114,0 -205,-36 -273,-108 -68,-72 -102,-167 -102,-286 0,-130 36,-231 106,-304 71,-73 167,-109 288,-109 114,0 204,35 269,106 64,71 96,169 96,294 0,124 -34,222 -104,296 -69,74 -163,111 -280,111zm9 -703c-79,0 -142,27 -188,81 -46,54 -69,128 -69,223 0,91 23,163 70,216 47,53 109,79 187,79 80,0 142,-26 185,-77 43,-52 64,-126 64,-221 0,-96 -21,-171 -64,-223 -43,-52 -105,-78 -185,-78zm1030 19l-231 0 0 666 -124 0 0 -666 -232 0 0 -105 587 0 0 105zm443 684c-114,0 -205,-36 -273,-108 -68,-72 -102,-167 -102,-286 0,-130 35,-231 106,-304 71,-73 166,-109 287,-109 115,0 205,35 269,106 65,71 97,169 97,294 0,124 -35,222 -104,296 -70,74 -163,111 -280,111zm9 -703c-79,0 -142,27 -188,81 -47,54 -70,128 -70,223 0,91 24,163 70,216 47,53 110,79 188,79 80,0 141,-26 184,-77 43,-52 64,-126 64,-221 0,-96 -21,-171 -64,-223 -43,-52 -104,-78 -184,-78z"/>
   </g>
  </g>
 </g>
</svg>
