<svg width="28" height="26" viewBox="0 0 28 26" fill="none" xmlns="http://www.w3.org/2000/svg">
<path d="M13.328 0.927054C13.6274 0.00574327 14.9308 0.00574017 15.2301 0.927051L17.7094 8.55758C17.8433 8.9696 18.2273 9.24856 18.6605 9.24856H26.6837C27.6524 9.24856 28.0552 10.4882 27.2715 11.0576L20.7806 15.7735C20.4301 16.0281 20.2834 16.4795 20.4173 16.8915L22.8966 24.5221C23.196 25.4434 22.1415 26.2095 21.3578 25.6401L14.8669 20.9242C14.5164 20.6695 14.0418 20.6695 13.6913 20.9242L7.20037 25.6401C6.41666 26.2095 5.36218 25.4434 5.66153 24.5221L8.14084 16.8915C8.27471 16.4795 8.12805 16.0281 7.77757 15.7735L1.28665 11.0576C0.502941 10.4882 0.905714 9.24856 1.87444 9.24856H9.89765C10.3309 9.24856 10.7148 8.9696 10.8487 8.55758L13.328 0.927054Z" fill="#332B25"/>
</svg>
